<svg width="136" height="64" viewBox="0 0 136 64" fill="none" xmlns="http://www.w3.org/2000/svg">
<path d="M19.4132 27.1948L20.4639 32.269C19.7346 32.7635 18.6901 33.2085 17.3365 33.604C15.983 33.9996 14.6356 34.1974 13.2944 34.1974C10.6986 34.1974 8.55393 33.3815 6.84809 31.7498C5.14225 30.1182 4.28933 27.6707 4.28933 24.4073V15.5196H0V9.61716H4.28315V4.41312L10.5379 3.05957V9.61716H19.4565V15.5196H10.5379V24.0427C10.5379 26.929 11.8173 28.3691 14.3822 28.3691C15.5195 28.3753 17.1944 27.9797 19.4132 27.1948Z" fill="white"/>
<path d="M38.4742 9.09781C41.1565 9.09781 43.2703 9.94457 44.8154 11.6319C46.3606 13.3253 47.1332 15.6369 47.1332 18.585V33.6656H40.8784V19.9386C40.8784 18.3069 40.5261 17.0831 39.8277 16.2673C39.1293 15.4515 37.9735 15.0436 36.3728 15.0436C32.788 15.0436 30.9956 17.0399 30.9956 21.0325V33.6656H24.7471V0H31.0018V12.8989C32.8004 10.3648 35.2973 9.09781 38.4742 9.09781Z" fill="white"/>
<path d="M65.6629 9.09863C66.0708 9.09863 66.5406 9.12954 67.0597 9.18517V15.613C66.417 15.5574 65.9101 15.5265 65.5269 15.5265C63.3143 15.5265 61.5281 16.1012 60.1684 17.2508C58.8148 18.4004 58.135 20.3041 58.135 22.9555V33.6665H51.8926V9.62401H58.1473V13.8206C59.6307 10.6685 62.14 9.09863 65.6629 9.09863Z" fill="white"/>
<path d="M82.0163 9.09863C85.9533 9.09863 89.0622 10.4522 91.349 13.1655C93.6358 15.8787 94.6185 19.241 94.2971 23.2646H75.8481C76.0521 25.1311 76.7196 26.5588 77.8568 27.5477C78.994 28.5366 80.4094 29.0372 82.0967 29.0372C83.3204 29.0372 84.4144 28.7653 85.3786 28.2276C86.3427 27.6898 87.0226 26.9544 87.4305 26.0211H93.9016C93.0548 28.7344 91.5715 30.774 89.4454 32.1399C87.3193 33.512 84.8841 34.1918 82.1461 34.1918C78.413 34.1918 75.3722 33.0114 73.0112 30.6504C70.6502 28.2894 69.4697 25.3042 69.4697 21.6885C69.4697 18.0729 70.6502 15.0753 73.0112 12.6834C75.3722 10.2915 78.3698 9.09863 82.0163 9.09863ZM81.9731 14.2533C80.4835 14.2533 79.2474 14.655 78.2585 15.4585C77.2696 16.262 76.565 17.3312 76.1571 18.6724H87.653C87.3007 17.3312 86.6332 16.262 85.6443 15.4585C84.6493 14.655 83.4255 14.2533 81.9731 14.2533Z" fill="white"/>
<path d="M110.521 9.09863C114.458 9.09863 117.567 10.4522 119.854 13.1655C122.141 15.8787 123.123 19.241 122.802 23.2646H104.353C104.557 25.1311 105.224 26.5588 106.362 27.5477C107.499 28.5366 108.914 29.0372 110.602 29.0372C111.825 29.0372 112.919 28.7653 113.883 28.2276C114.848 27.6898 115.527 26.9544 115.935 26.0211H122.406C121.56 28.7344 120.076 30.774 117.95 32.1399C115.824 33.512 113.389 34.1918 110.651 34.1918C106.918 34.1918 103.877 33.0114 101.516 30.6504C99.1551 28.2894 97.9746 25.3042 97.9746 21.6885C97.9746 18.0729 99.1551 15.0753 101.516 12.6834C103.871 10.2915 106.875 9.09863 110.521 9.09863ZM110.478 14.2533C108.988 14.2533 107.752 14.655 106.763 15.4585C105.775 16.262 105.07 17.3312 104.662 18.6724H116.158C115.806 17.3312 115.138 16.262 114.149 15.4585C113.154 14.655 111.93 14.2533 110.478 14.2533Z" fill="white"/>
<path d="M128.73 27.8066C129.471 27.1082 130.399 26.7559 131.505 26.7559C132.611 26.7559 133.538 27.1082 134.28 27.8066C135.022 28.505 135.392 29.395 135.392 30.4704C135.392 31.552 135.022 32.4358 134.28 33.1404C133.538 33.845 132.611 34.1911 131.505 34.1911C130.399 34.1911 129.471 33.8388 128.73 33.1404C127.988 32.442 127.617 31.552 127.617 30.4704C127.611 29.395 127.988 28.505 128.73 27.8066Z" fill="white"/>
<path d="M8.76968 50.6372H10.1356V59.698H8.76968V57.8685C8.40502 58.4928 7.92912 58.9872 7.3296 59.3395C6.73009 59.6918 6.05022 59.8772 5.27765 59.8772C4.04771 59.8772 3.03409 59.4384 2.2368 58.5546C1.4395 57.6707 1.04395 56.5459 1.04395 55.1676C1.04395 53.7893 1.4395 52.6644 2.2368 51.7806C3.03409 50.8968 4.04771 50.458 5.27765 50.458C6.04404 50.458 6.73009 50.6372 7.33578 51.0019C7.94148 51.3666 8.41739 51.8672 8.76968 52.4976V50.6372ZM5.54341 58.5731C6.47668 58.5731 7.24925 58.2517 7.86731 57.609C8.47919 56.9662 8.78822 56.1503 8.78822 55.1614C8.78822 54.1725 8.47919 53.3567 7.86731 52.7139C7.24925 52.0711 6.47668 51.7497 5.54341 51.7497C4.62251 51.7497 3.87465 52.0711 3.29368 52.7139C2.7127 53.3567 2.4284 54.1725 2.4284 55.1614C2.4284 56.1627 2.71888 56.9785 3.29986 57.6151C3.88083 58.2579 4.62869 58.5731 5.54341 58.5731Z" fill="white"/>
<path d="M19.9383 50.6376H21.3042V59.5994C21.3042 60.953 20.921 62.0222 20.1484 62.8134C19.382 63.6045 18.3313 64 17.0025 64C15.8962 64 14.932 63.7157 14.1224 63.1471C13.3127 62.5785 12.7935 61.775 12.5772 60.7428H13.9926C14.178 61.3918 14.5365 61.8924 15.0742 62.2509C15.6057 62.6094 16.2423 62.7886 16.9778 62.7886C17.9234 62.7886 18.6527 62.5167 19.1657 61.9728C19.6787 61.4289 19.9383 60.6501 19.9383 59.6427V57.8132C19.5736 58.4375 19.0916 58.9319 18.492 59.2842C17.8863 59.6427 17.2065 59.8219 16.4525 59.8219C15.2225 59.8219 14.2089 59.3831 13.4116 58.4993C12.6143 57.6155 12.2188 56.4968 12.2188 55.1494C12.2188 53.7897 12.6143 52.671 13.4116 51.7872C14.2089 50.9095 15.2225 50.4707 16.4525 50.4707C17.2003 50.4707 17.8802 50.6499 18.492 51.0146C19.1039 51.3793 19.5922 51.8737 19.9383 52.498V50.6376ZM16.7059 58.5117C17.6268 58.5117 18.3993 58.1965 19.0174 57.5599C19.6355 56.9233 19.9507 56.1136 19.9507 55.1371C19.9507 54.1605 19.6416 53.3509 19.0174 52.7143C18.3993 52.0777 17.6268 51.7563 16.7059 51.7563C15.7973 51.7563 15.0495 52.0777 14.4685 52.7143C13.8875 53.3509 13.597 54.1605 13.597 55.1371C13.597 56.1136 13.8875 56.9233 14.4685 57.5599C15.0495 58.1903 15.7973 58.5117 16.7059 58.5117Z" fill="white"/>
<path d="M28.0033 50.458C29.4063 50.458 30.5311 50.9339 31.3655 51.8919C32.1999 52.8437 32.5893 54.0798 32.5337 55.5817H24.777C24.845 56.515 25.1788 57.2505 25.7845 57.7882C26.3902 58.3259 27.1504 58.5978 28.0713 58.5978C29.4248 58.5978 30.3643 58.0725 30.902 57.0156H32.3173C31.9465 57.9489 31.3779 58.6596 30.6239 59.1479C29.8636 59.6362 28.9984 59.8834 28.0218 59.8834C26.6683 59.8834 25.562 59.4446 24.6843 58.5731C23.8067 57.7017 23.374 56.5768 23.374 55.2047C23.374 53.8326 23.8067 52.7016 24.6719 51.8054C25.5434 50.903 26.6559 50.458 28.0033 50.458ZM28.0033 51.7374C27.1936 51.7374 26.5014 51.9722 25.939 52.4481C25.3704 52.9179 25.0057 53.5359 24.845 54.29H31.0565C30.902 53.5236 30.5559 52.9055 30.0182 52.4358C29.4743 51.9723 28.8068 51.7374 28.0033 51.7374Z" fill="white"/>
<path d="M39.1348 50.458C40.1546 50.458 40.9581 50.767 41.5391 51.3789C42.12 51.9908 42.4105 52.8499 42.4105 53.95V59.698H41.0446V54.2158C41.0446 52.5779 40.2844 51.7621 38.7578 51.7621C37.8492 51.7621 37.1385 52.0588 36.644 52.6521C36.1434 53.2454 35.8962 54.0489 35.8962 55.0564V59.698H34.5303V50.6372H35.8962V52.4296C36.5513 51.1132 37.6329 50.458 39.1348 50.458Z" fill="white"/>
<path d="M49.0674 59.8772C47.7385 59.8772 46.626 59.4322 45.7299 58.536C44.8337 57.6399 44.3887 56.5212 44.3887 55.1676C44.3887 53.8141 44.8337 52.6954 45.7299 51.7992C46.626 50.903 47.7385 50.458 49.0674 50.458C50.1428 50.458 51.0884 50.7608 51.8981 51.3665C52.7077 51.9722 53.2331 52.7819 53.4618 53.8017H52.0464C51.8363 53.1651 51.4654 52.6583 50.9277 52.2874C50.39 51.9166 49.772 51.725 49.0674 51.725C48.1094 51.725 47.3245 52.0464 46.7064 52.6954C46.0883 53.3443 45.7731 54.1664 45.7731 55.1676C45.7731 56.1689 46.0822 56.9909 46.7064 57.6398C47.3245 58.2888 48.1156 58.6102 49.0674 58.6102C49.772 58.6102 50.39 58.4248 50.9216 58.0477C51.4531 57.6769 51.8301 57.1701 52.0526 56.5335H53.468C53.2269 57.5657 52.7016 58.3815 51.8857 58.981C51.0699 59.5744 50.1304 59.8772 49.0674 59.8772Z" fill="white"/>
<path d="M61.6638 50.6377H63.1286L57.016 63.8147H55.5512L57.9554 58.5921L54.2842 50.6377H55.749L58.6786 57.1273L61.6638 50.6377Z" fill="white"/>
</svg>
