<svg width="136" height="64" viewBox="0 0 136 64" fill="none" xmlns="http://www.w3.org/2000/svg">
<path d="M19.407 27.1948L20.4578 32.269C19.7284 32.7635 18.6839 33.2085 17.3304 33.604C15.9768 33.9996 14.6295 34.1974 13.2883 34.1974C10.6924 34.1974 8.54776 33.3815 6.84192 31.7499C5.13607 30.1182 4.28314 27.6707 4.28314 24.4073V15.5196H0V9.61717H4.28314V4.41312L10.5379 3.05957V9.61717H19.4565V15.5196H10.5379V24.0427C10.5379 26.929 11.8173 28.3691 14.3822 28.3691C15.5133 28.3753 17.1882 27.9797 19.407 27.1948Z" fill="#FE6621"/>
<path d="M38.4681 9.09781C41.1505 9.09781 43.2643 9.94457 44.8094 11.6319C46.3546 13.3254 47.1271 15.6369 47.1271 18.585V33.6657H40.8724V19.9386C40.8724 18.3069 40.5201 17.0832 39.8217 16.2673C39.1233 15.4515 37.9675 15.0436 36.3667 15.0436C32.782 15.0436 30.9896 17.0399 30.9896 21.0325V33.6657H24.7349V0H30.9896V12.8989C32.8005 10.3648 35.2913 9.09781 38.4681 9.09781Z" fill="#FE6621"/>
<path d="M65.6562 9.09766C66.0642 9.09766 66.5339 9.12857 67.0531 9.18419V15.612C66.4103 15.5564 65.9035 15.5255 65.5203 15.5255C63.3076 15.5255 61.5214 16.1003 60.1617 17.2499C58.8082 18.3994 58.1283 20.3031 58.1283 22.9546V33.6655H51.8735V9.62303H58.1283V13.8196C59.624 10.6675 62.1333 9.09766 65.6562 9.09766Z" fill="#FE6621"/>
<path d="M82.0101 9.09766C85.9472 9.09766 89.056 10.4512 91.3428 13.1645C93.6296 15.8778 94.6123 19.24 94.291 23.2636H75.8481C76.052 25.1301 76.7195 26.5578 77.8568 27.5467C78.994 28.5356 80.4094 29.0362 82.0967 29.0362C83.3204 29.0362 84.4144 28.7643 85.3786 28.2266C86.3427 27.6889 87.0226 26.9534 87.4305 26.0201H93.9016C93.0548 28.7334 91.5715 30.773 89.4454 32.1389C87.3192 33.511 84.8841 34.1909 82.1461 34.1909C78.413 34.1909 75.3722 33.0104 73.0112 30.6494C70.6502 28.2884 69.4697 25.3032 69.4697 21.6876C69.4697 18.0719 70.6502 15.0743 73.0112 12.6824C75.366 10.2905 78.3636 9.09766 82.0101 9.09766ZM81.9669 14.2523C80.4773 14.2523 79.2412 14.654 78.2523 15.4575C77.2634 16.261 76.5589 17.3302 76.1509 18.6714H87.6468C87.2945 17.3302 86.627 16.261 85.6381 15.4575C84.6492 14.654 83.4255 14.2523 81.9669 14.2523Z" fill="#FE6621"/>
<path d="M110.515 9.09766C114.452 9.09766 117.561 10.4512 119.848 13.1645C122.135 15.8778 123.118 19.24 122.796 23.2636H104.347C104.551 25.1301 105.219 26.5578 106.356 27.5467C107.493 28.5356 108.908 29.0362 110.596 29.0362C111.819 29.0362 112.913 28.7643 113.878 28.2266C114.842 27.6889 115.522 26.9534 115.93 26.0201H122.401C121.554 28.7334 120.071 30.773 117.944 32.1389C115.818 33.511 113.383 34.1909 110.645 34.1909C106.912 34.1909 103.871 33.0104 101.51 30.6494C99.1492 28.2884 97.9688 25.3032 97.9688 21.6876C97.9688 18.0719 99.1492 15.0743 101.51 12.6824C103.871 10.2905 106.869 9.09766 110.515 9.09766ZM110.472 14.2523C108.983 14.2523 107.746 14.654 106.758 15.4575C105.769 16.261 105.064 17.3302 104.656 18.6714H116.152C115.8 17.3302 115.132 16.261 114.143 15.4575C113.154 14.654 111.931 14.2523 110.472 14.2523Z" fill="#FE6621"/>
<path d="M128.723 27.8066C129.465 27.1082 130.392 26.7559 131.498 26.7559C132.605 26.7559 133.532 27.1082 134.274 27.8066C135.015 28.505 135.386 29.395 135.386 30.4704C135.386 31.552 135.015 32.4358 134.274 33.1404C133.532 33.8388 132.605 34.1911 131.498 34.1911C130.392 34.1911 129.465 33.8388 128.723 33.1404C127.982 32.442 127.611 31.552 127.611 30.4704C127.611 29.395 127.982 28.505 128.723 27.8066Z" fill="#FE6621"/>
<path d="M8.83218 47.0156H10.1981V59.6982H8.83218V57.8687C8.47989 58.493 8.00398 58.9874 7.39828 59.3397C6.79258 59.6982 6.10653 59.8774 5.34013 59.8774C4.1102 59.8774 3.09659 59.4386 2.29929 58.5548C1.502 57.671 1.10645 56.5461 1.10645 55.1678C1.10645 53.7896 1.502 52.6647 2.29929 51.7808C3.09659 50.897 4.1102 50.4582 5.34013 50.4582C6.10653 50.4582 6.79258 50.6375 7.39828 51.0021C8.00398 51.3668 8.47989 51.8674 8.83218 52.4978V47.0156ZM5.60591 58.5733C6.53918 58.5733 7.31174 58.2519 7.9298 57.6092C8.54168 56.9664 8.85072 56.1505 8.85072 55.1616C8.85072 54.1727 8.54168 53.3569 7.9298 52.7141C7.31174 52.0713 6.53918 51.7499 5.60591 51.7499C4.69737 51.7499 3.9495 52.0713 3.36852 52.7141C2.78755 53.3569 2.49708 54.1727 2.49708 55.1616C2.49708 56.1629 2.78755 56.9787 3.36852 57.6153C3.94332 58.2581 4.69119 58.5733 5.60591 58.5733Z" fill="#FE6621"/>
<path d="M12.6455 46.9171C12.8247 46.7441 13.0534 46.6514 13.3315 46.6514C13.6035 46.6514 13.8322 46.7379 14.0176 46.9171C14.203 47.0964 14.2895 47.3065 14.2895 47.5599C14.2895 47.8257 14.1968 48.042 14.0176 48.2213C13.8383 48.4005 13.6097 48.487 13.3315 48.487C13.0596 48.487 12.8309 48.4005 12.6455 48.2213C12.4662 48.0482 12.3735 47.8257 12.3735 47.5599C12.3735 47.3065 12.4601 47.0902 12.6455 46.9171ZM12.6331 59.6924V50.6317H13.999V59.6924H12.6331Z" fill="#FE6621"/>
<path d="M23.783 50.6376H25.149V59.5994C25.149 60.953 24.7658 62.0222 23.9932 62.8134C23.2268 63.6045 22.1761 64 20.8472 64C19.7409 64 18.7768 63.7157 17.9671 63.1471C17.1575 62.5785 16.6383 61.775 16.422 60.7428H17.8373C18.0227 61.3918 18.3812 61.8924 18.9189 62.2509C19.4504 62.6094 20.087 62.7887 20.8225 62.7887C21.7682 62.7887 22.4975 62.5167 23.0105 61.9728C23.5234 61.4289 23.783 60.6502 23.783 59.6427V57.8132C23.4184 58.4375 22.9363 58.9319 22.3368 59.2842C21.7311 59.6427 21.0512 59.8219 20.2972 59.8219C19.0672 59.8219 18.0536 59.3831 17.2563 58.4993C16.459 57.6155 16.0635 56.4968 16.0635 55.1494C16.0635 53.7897 16.459 52.671 17.2563 51.7872C18.0536 50.9095 19.0672 50.4707 20.2972 50.4707C21.045 50.4707 21.7249 50.6499 22.3368 51.0146C22.9486 51.3793 23.4369 51.8737 23.783 52.498V50.6376ZM20.5568 58.5117C21.4777 58.5117 22.2503 58.1965 22.8683 57.5599C23.4864 56.9233 23.8016 56.1136 23.8016 55.1371C23.8016 54.1605 23.4926 53.3509 22.8683 52.7143C22.2503 52.0777 21.4777 51.7563 20.5568 51.7563C19.6482 51.7563 18.9004 52.0777 18.3194 52.7143C17.7384 53.3509 17.4479 54.1605 17.4479 55.1371C17.4479 56.1136 17.7384 56.9233 18.3194 57.5599C18.9004 58.1903 19.6421 58.5117 20.5568 58.5117Z" fill="#FE6621"/>
<path d="M27.5962 46.9171C27.7754 46.7441 28.0041 46.6514 28.2822 46.6514C28.5542 46.6514 28.7828 46.7379 28.9683 46.9171C29.1537 47.0964 29.2402 47.3065 29.2402 47.5599C29.2402 47.8257 29.1475 48.042 28.9683 48.2213C28.789 48.4005 28.5603 48.487 28.2822 48.487C28.0103 48.487 27.7816 48.4005 27.5962 48.2213C27.4169 48.0482 27.3242 47.8257 27.3242 47.5599C27.3242 47.3065 27.4169 47.0902 27.5962 46.9171ZM27.59 59.6924V50.6317H28.9559V59.6924H27.59Z" fill="#FE6621"/>
<path d="M37.7821 58.1662L38.0293 59.3035C37.3062 59.6866 36.4842 59.8782 35.5756 59.8782C34.5744 59.8782 33.7833 59.563 33.2023 58.9326C32.6213 58.3022 32.3308 57.406 32.3308 56.2379V51.9238H30.5879V50.6383H32.3308V48.4627L33.6967 48.166V50.6383H37.7636V51.9238H33.6967V56.1761C33.6967 57.8016 34.4013 58.6112 35.8043 58.6112C36.3111 58.6112 36.9724 58.4629 37.7821 58.1662Z" fill="#FE6621"/>
<path d="M46.8429 50.6382H48.2088V59.699H46.8429V57.8695C46.4783 58.4937 46.0024 58.9882 45.4028 59.3405C44.8033 59.6928 44.1235 59.8782 43.3509 59.8782C42.1209 59.8782 41.1073 59.4394 40.31 58.5555C39.5127 57.6717 39.1172 56.5469 39.1172 55.1686C39.1172 53.7903 39.5127 52.6654 40.31 51.7816C41.1073 50.8978 42.1209 50.459 43.3509 50.459C44.1173 50.459 44.8033 50.6382 45.409 51.0029C46.0147 51.3675 46.4906 51.8682 46.8429 52.4986V50.6382ZM43.6105 58.5741C44.5437 58.5741 45.3163 58.2527 45.9344 57.6099C46.5463 56.9672 46.8553 56.1513 46.8553 55.1624C46.8553 54.1735 46.5463 53.3577 45.9344 52.7149C45.3163 52.0721 44.5437 51.7507 43.6105 51.7507C42.6896 51.7507 41.9417 52.0721 41.3607 52.7149C40.7798 53.3577 40.4954 54.1735 40.4954 55.1624C40.4954 56.1637 40.7859 56.9795 41.3669 57.6161C41.9541 58.2589 42.7019 58.5741 43.6105 58.5741Z" fill="#FE6621"/>
<path d="M50.6934 59.6923V47.0098H52.0593V59.6923H50.6934Z" fill="#FE6621"/>
</svg>
